<svg xmlns="http://www.w3.org/2000/svg" width="1200" height="3008" viewBox="0 0 1200 3008"><rect width="1200" height="3008" fill="#f8f7f3"/><g font-family="Arial, sans-serif" fill="#14110b"><text x="32" y="48" font-size="28" font-weight="600">Milana ERP — 10 Packaging</text><text x="32" y="82" font-size="16">Source-based navigation • Release 20260920_030043 • Dynamic destinations retain conditions</text><g><rect x="32" y="122" width="1136" height="124" fill="white" stroke="#ded9ca"/><text x="54" y="152" font-size="20" font-weight="600">P049  Packages / Detail</text><text x="54" y="179" font-size="16" fill="#56503f">/packages/[id]</text><text x="54" y="210" font-size="15">C0318 Traceability → /traceability</text></g><g><rect x="32" y="270" width="1136" height="172" fill="white" stroke="#ded9ca"/><text x="54" y="300" font-size="20" font-weight="600">P050  Packages</text><text x="54" y="327" font-size="16" fill="#56503f">/packages</text><text x="54" y="358" font-size="15">C0291 Receive from Sewing → /packaging/receive</text><text x="54" y="382" font-size="15">C0294 View → /packages/[id]</text><text x="54" y="406" font-size="15">C0295 Passport → /traceability</text></g><g><rect x="32" y="466" width="1136" height="124" fill="white" stroke="#ded9ca"/><text x="54" y="496" font-size="20" font-weight="600">P051  Packages / Scan</text><text x="54" y="523" font-size="16" fill="#56503f">/packages/scan</text><text x="54" y="554" font-size="15">No resolved page-opening control in this route. Local actions are in the control register.</text></g><g><rect x="32" y="614" width="1136" height="124" fill="white" stroke="#ded9ca"/><text x="54" y="644" font-size="20" font-weight="600">P052  Packaging / Queue</text><text x="54" y="671" font-size="16" fill="#56503f">/packaging/queue</text><text x="54" y="702" font-size="15">C0322 Packing → /work-orders/[id]/packaging</text></g><g><rect x="32" y="762" width="1136" height="124" fill="white" stroke="#ded9ca"/><text x="54" y="792" font-size="20" font-weight="600">P053  Packaging / Receive</text><text x="54" y="819" font-size="16" fill="#56503f">/packaging/receive</text><text x="54" y="850" font-size="15">No resolved page-opening control in this route. Local actions are in the control register.</text></g><g><rect x="32" y="910" width="1136" height="124" fill="white" stroke="#ded9ca"/><text x="54" y="940" font-size="20" font-weight="600">P054  Packaging / Reports</text><text x="54" y="967" font-size="16" fill="#56503f">/packaging/reports</text><text x="54" y="998" font-size="15">No resolved page-opening control in this route. Local actions are in the control register.</text></g><g><rect x="32" y="1058" width="1136" height="172" fill="white" stroke="#ded9ca"/><text x="54" y="1088" font-size="20" font-weight="600">V021  Packages — /packages?packaging_department=BPK</text><text x="54" y="1115" font-size="16" fill="#56503f">/packages?packaging_department=BPK</text><text x="54" y="1146" font-size="15">C0291 Receive from Sewing → /packaging/receive</text><text x="54" y="1170" font-size="15">C0294 View → /packages/[id]</text><text x="54" y="1194" font-size="15">C0295 Passport → /traceability</text></g><g><rect x="32" y="1254" width="1136" height="124" fill="white" stroke="#ded9ca"/><text x="54" y="1284" font-size="20" font-weight="600">V022  Packing Queue — /packaging/queue?packaging_department=BPK</text><text x="54" y="1311" font-size="16" fill="#56503f">/packaging/queue?packaging_department=BPK</text><text x="54" y="1342" font-size="15">C0322 Packing → /work-orders/[id]/packaging</text></g><g><rect x="32" y="1402" width="1136" height="124" fill="white" stroke="#ded9ca"/><text x="54" y="1432" font-size="20" font-weight="600">V023  Receive from Sewing — /packaging/receive?packaging_department=BPK</text><text x="54" y="1459" font-size="16" fill="#56503f">/packaging/receive?packaging_department=BPK</text><text x="54" y="1490" font-size="15">No resolved page-opening control in this route. Local actions are in the control register.</text></g><g><rect x="32" y="1550" width="1136" height="124" fill="white" stroke="#ded9ca"/><text x="54" y="1580" font-size="20" font-weight="600">V024  Packaging reports — /packaging/reports?packaging_department=BPK</text><text x="54" y="1607" font-size="16" fill="#56503f">/packaging/reports?packaging_department=BPK</text><text x="54" y="1638" font-size="15">No resolved page-opening control in this route. Local actions are in the control register.</text></g><g><rect x="32" y="1698" width="1136" height="172" fill="white" stroke="#ded9ca"/><text x="54" y="1728" font-size="20" font-weight="600">V035  Packages — /packages?packaging_department=ECP</text><text x="54" y="1755" font-size="16" fill="#56503f">/packages?packaging_department=ECP</text><text x="54" y="1786" font-size="15">C0291 Receive from Sewing → /packaging/receive</text><text x="54" y="1810" font-size="15">C0294 View → /packages/[id]</text><text x="54" y="1834" font-size="15">C0295 Passport → /traceability</text></g><g><rect x="32" y="1894" width="1136" height="124" fill="white" stroke="#ded9ca"/><text x="54" y="1924" font-size="20" font-weight="600">V036  Packing Queue — /packaging/queue?packaging_department=ECP</text><text x="54" y="1951" font-size="16" fill="#56503f">/packaging/queue?packaging_department=ECP</text><text x="54" y="1982" font-size="15">C0322 Packing → /work-orders/[id]/packaging</text></g><g><rect x="32" y="2042" width="1136" height="124" fill="white" stroke="#ded9ca"/><text x="54" y="2072" font-size="20" font-weight="600">V037  Receive from Sewing — /packaging/receive?packaging_department=ECP</text><text x="54" y="2099" font-size="16" fill="#56503f">/packaging/receive?packaging_department=ECP</text><text x="54" y="2130" font-size="15">No resolved page-opening control in this route. Local actions are in the control register.</text></g><g><rect x="32" y="2190" width="1136" height="124" fill="white" stroke="#ded9ca"/><text x="54" y="2220" font-size="20" font-weight="600">V038  Packaging reports — /packaging/reports?packaging_department=ECP</text><text x="54" y="2247" font-size="16" fill="#56503f">/packaging/reports?packaging_department=ECP</text><text x="54" y="2278" font-size="15">No resolved page-opening control in this route. Local actions are in the control register.</text></g><g><rect x="32" y="2338" width="1136" height="172" fill="white" stroke="#ded9ca"/><text x="54" y="2368" font-size="20" font-weight="600">V040  Packages — /packages?packaging_department=PKG</text><text x="54" y="2395" font-size="16" fill="#56503f">/packages?packaging_department=PKG</text><text x="54" y="2426" font-size="15">C0291 Receive from Sewing → /packaging/receive</text><text x="54" y="2450" font-size="15">C0294 View → /packages/[id]</text><text x="54" y="2474" font-size="15">C0295 Passport → /traceability</text></g><g><rect x="32" y="2534" width="1136" height="124" fill="white" stroke="#ded9ca"/><text x="54" y="2564" font-size="20" font-weight="600">V041  Packing Queue — /packaging/queue?packaging_department=PKG</text><text x="54" y="2591" font-size="16" fill="#56503f">/packaging/queue?packaging_department=PKG</text><text x="54" y="2622" font-size="15">C0322 Packing → /work-orders/[id]/packaging</text></g><g><rect x="32" y="2682" width="1136" height="124" fill="white" stroke="#ded9ca"/><text x="54" y="2712" font-size="20" font-weight="600">V042  Receive from Sewing — /packaging/receive?packaging_department=PKG</text><text x="54" y="2739" font-size="16" fill="#56503f">/packaging/receive?packaging_department=PKG</text><text x="54" y="2770" font-size="15">No resolved page-opening control in this route. Local actions are in the control register.</text></g><g><rect x="32" y="2830" width="1136" height="124" fill="white" stroke="#ded9ca"/><text x="54" y="2860" font-size="20" font-weight="600">V043  Packaging reports — /packaging/reports?packaging_department=PKG</text><text x="54" y="2887" font-size="16" fill="#56503f">/packaging/reports?packaging_department=PKG</text><text x="54" y="2918" font-size="15">No resolved page-opening control in this route. Local actions are in the control register.</text></g></g></svg>